<?xml version="1.0" encoding="UTF-8"?>
<mxfile host="app.diagrams.net" agent="5.0" version="24.0.0" type="device">
  <diagram id="dsa-visualizer-system-architecture" name="DSA Visualizer System Architecture">
    <mxGraphModel dx="1600" dy="900" grid="1" gridSize="10" guides="1" tooltips="1" connect="1" arrows="1" fold="1" page="1" pageScale="1" pageWidth="1400" pageHeight="1000" math="0" shadow="0">
      <root>
        <mxCell id="0"/>
        <mxCell id="1" parent="0"/>
        
        <!-- Title Section -->
        <mxCell id="title" value="DSA Visualizer Platform - System Architecture" style="text;html=1;align=center;verticalAlign=middle;whiteSpace=wrap;rounded=1;fillColor=#1ba1e2;fontColor=#ffffff;fontSize=20;fontStyle=1;strokeColor=#006EAF;" vertex="1" parent="1">
          <mxGeometry x="450" y="20" width="500" height="40" as="geometry"/>
        </mxCell>
        
        <mxCell id="subtitle" value="Comprehensive Educational Platform for Data Structures &amp; Algorithms Learning" style="text;html=1;align=center;verticalAlign=middle;whiteSpace=wrap;rounded=0;fontSize=12;fontStyle=2;fillColor=#f0f0f0;" vertex="1" parent="1">
          <mxGeometry x="450" y="65" width="500" height="25" as="geometry"/>
        </mxCell>
        
        <!-- User Interface Layer -->
        <mxCell id="ui-layer" value="User Interface &amp; Presentation Layer" style="swimlane;startSize=30;fillColor=#e1d5e7;strokeColor=#9673a6;fontSize=14;fontStyle=1;" vertex="1" parent="1">
          <mxGeometry x="50" y="110" width="1300" height="140" as="geometry"/>
        </mxCell>
        
        <mxCell id="nextjs" value="Next.js 15&#xa;• App Router&#xa;• Server Components&#xa;• Client Components" style="rounded=1;whiteSpace=wrap;html=1;fillColor=#dae8fc;strokeColor=#6c8ebf;fontSize=10;align=left;verticalAlign=top;" vertex="1" parent="ui-layer">
          <mxGeometry x="20" y="40" width="140" height="80" as="geometry"/>
        </mxCell>
        
        <mxCell id="react" value="React 19&#xa;• Functional Components&#xa;• Custom Hooks&#xa;• Context API" style="rounded=1;whiteSpace=wrap;html=1;fillColor=#d5e8d4;strokeColor=#82b366;fontSize=10;align=left;verticalAlign=top;" vertex="1" parent="ui-layer">
          <mxGeometry x="180" y="40" width="140" height="80" as="geometry"/>
        </mxCell>
        
        <mxCell id="typescript" value="TypeScript&#xa;• Type Safety&#xa;• Interface Definitions&#xa;• Generic Types" style="rounded=1;whiteSpace=wrap;html=1;fillColor=#fff2cc;strokeColor=#d6b656;fontSize=10;align=left;verticalAlign=top;" vertex="1" parent="ui-layer">
          <mxGeometry x="340" y="40" width="140" height="80" as="geometry"/>
        </mxCell>
        
        <mxCell id="styling" value="Styling System&#xa;• Tailwind CSS&#xa;• Responsive Design&#xa;• Dark/Light Theme" style="rounded=1;whiteSpace=wrap;html=1;fillColor=#f8cecc;strokeColor=#b85450;fontSize=10;align=left;verticalAlign=top;" vertex="1" parent="ui-layer">
          <mxGeometry x="500" y="40" width="140" height="80" as="geometry"/>
        </mxCell>
        
        <mxCell id="ui-components" value="UI Components&#xa;• Navigation System&#xa;• Form Controls&#xa;• Modal Dialogs" style="rounded=1;whiteSpace=wrap;html=1;fillColor=#e1d5e7;strokeColor=#9673a6;fontSize=10;align=left;verticalAlign=top;" vertex="1" parent="ui-layer">
          <mxGeometry x="660" y="40" width="140" height="80" as="geometry"/>
        </mxCell>
        
        <mxCell id="animation" value="Animation Engine&#xa;• Framer Motion&#xa;• CSS Animations&#xa;• SVG Graphics" style="rounded=1;whiteSpace=wrap;html=1;fillColor=#ffcd28;strokeColor=#d79b00;fontSize=10;align=left;verticalAlign=top;" vertex="1" parent="ui-layer">
          <mxGeometry x="820" y="40" width="140" height="80" as="geometry"/>
        </mxCell>
        
        <mxCell id="mobile" value="Mobile Support&#xa;• PWA Features&#xa;• Touch Gestures&#xa;• Offline Mode" style="rounded=1;whiteSpace=wrap;html=1;fillColor=#ffe6cc;strokeColor=#d79b00;fontSize=10;align=left;verticalAlign=top;" vertex="1" parent="ui-layer">
          <mxGeometry x="980" y="40" width="140" height="80" as="geometry"/>
        </mxCell>
        
        <mxCell id="performance-ui" value="Performance&#xa;• Code Splitting&#xa;• Lazy Loading&#xa;• Optimization" style="rounded=1;whiteSpace=wrap;html=1;fillColor=#f5f5f5;strokeColor=#666666;fontSize=10;align=left;verticalAlign=top;" vertex="1" parent="ui-layer">
          <mxGeometry x="1140" y="40" width="140" height="80" as="geometry"/>
        </mxCell>
        
        <!-- Algorithm Visualization Layer -->
        <mxCell id="viz-layer" value="Algorithm Visualization &amp; Learning Engine" style="swimlane;startSize=30;fillColor=#d5e8d4;strokeColor=#82b366;fontSize=14;fontStyle=1;" vertex="1" parent="1">
          <mxGeometry x="50" y="270" width="1300" height="160" as="geometry"/>
        </mxCell>
        
        <mxCell id="sorting" value="Sorting Algorithms&#xa;• Quick Sort&#xa;• Merge Sort&#xa;• Heap Sort&#xa;• Bubble Sort" style="rounded=1;whiteSpace=wrap;html=1;fillColor=#dae8fc;strokeColor=#6c8ebf;fontSize=10;align=left;verticalAlign=top;" vertex="1" parent="viz-layer">
          <mxGeometry x="20" y="40" width="130" height="100" as="geometry"/>
        </mxCell>
        
        <mxCell id="search" value="Search Algorithms&#xa;• Binary Search&#xa;• Linear Search&#xa;• DFS/BFS&#xa;• A* Algorithm" style="rounded=1;whiteSpace=wrap;html=1;fillColor=#fff2cc;strokeColor=#d6b656;fontSize=10;align=left;verticalAlign=top;" vertex="1" parent="viz-layer">
          <mxGeometry x="170" y="40" width="130" height="100" as="geometry"/>
        </mxCell>
        
        <mxCell id="data-structures" value="Data Structures&#xa;• Binary Trees&#xa;• AVL Trees&#xa;• Linked Lists&#xa;• Stack &amp; Queue" style="rounded=1;whiteSpace=wrap;html=1;fillColor=#f8cecc;strokeColor=#b85450;fontSize=10;align=left;verticalAlign=top;" vertex="1" parent="viz-layer">
          <mxGeometry x="320" y="40" width="130" height="100" as="geometry"/>
        </mxCell>
        
        <mxCell id="graph-algos" value="Graph Algorithms&#xa;• Dijkstra&#xa;• Bellman-Ford&#xa;• MST Algorithms&#xa;• Topological Sort" style="rounded=1;whiteSpace=wrap;html=1;fillColor=#e1d5e7;strokeColor=#9673a6;fontSize=10;align=left;verticalAlign=top;" vertex="1" parent="viz-layer">
          <mxGeometry x="470" y="40" width="130" height="100" as="geometry"/>
        </mxCell>
        
        <mxCell id="advanced-algos" value="Advanced Algorithms&#xa;• Huffman Coding&#xa;• Dynamic Programming&#xa;• Greedy Algorithms&#xa;• Backtracking" style="rounded=1;whiteSpace=wrap;html=1;fillColor=#ffcd28;strokeColor=#d79b00;fontSize=10;align=left;verticalAlign=top;" vertex="1" parent="viz-layer">
          <mxGeometry x="620" y="40" width="130" height="100" as="geometry"/>
        </mxCell>
        
        <mxCell id="pathfinding" value="Pathfinding&#xa;• Grid Visualization&#xa;• Maze Generation&#xa;• Real-time Path&#xa;• Interactive Controls" style="rounded=1;whiteSpace=wrap;html=1;fillColor=#ffe6cc;strokeColor=#d79b00;fontSize=10;align=left;verticalAlign=top;" vertex="1" parent="viz-layer">
          <mxGeometry x="770" y="40" width="130" height="100" as="geometry"/>
        </mxCell>
        
        <mxCell id="interactive-controls" value="Interactive Features&#xa;• Speed Control&#xa;• Step-by-step&#xa;• Custom Input&#xa;• Export Results" style="rounded=1;whiteSpace=wrap;html=1;fillColor=#f5f5f5;strokeColor=#666666;fontSize=10;align=left;verticalAlign=top;" vertex="1" parent="viz-layer">
          <mxGeometry x="920" y="40" width="130" height="100" as="geometry"/>
        </mxCell>
        
        <mxCell id="complexity" value="Complexity Analysis&#xa;• Time Complexity&#xa;• Space Complexity&#xa;• Big O Notation&#xa;• Performance Metrics" style="rounded=1;whiteSpace=wrap;html=1;fillColor=#d4e8fc;strokeColor=#6c8ebf;fontSize=10;align=left;verticalAlign=top;" vertex="1" parent="viz-layer">
          <mxGeometry x="1070" y="40" width="130" height="100" as="geometry"/>
        </mxCell>
        
        <mxCell id="learning-engine" value="Learning Engine&#xa;• Adaptive Learning&#xa;• Progress Tracking&#xa;• Difficulty Adjustment&#xa;• Personalization" style="rounded=1;whiteSpace=wrap;html=1;fillColor=#d5e8d4;strokeColor=#82b366;fontSize=10;align=left;verticalAlign=top;" vertex="1" parent="viz-layer">
          <mxGeometry x="1220" y="40" width="130" height="100" as="geometry"/>
        </mxCell>
        
        <!-- Backend Services Layer -->
        <mxCell id="backend-layer" value="Backend Services &amp; Business Logic" style="swimlane;startSize=30;fillColor=#fff2cc;strokeColor=#d6b656;fontSize=14;fontStyle=1;" vertex="1" parent="1">
          <mxGeometry x="50" y="450" width="1300" height="140" as="geometry"/>
        </mxCell>
        
        <mxCell id="api-gateway" value="API Gateway&#xa;• RESTful APIs&#xa;• GraphQL&#xa;• Rate Limiting&#xa;• Validation" style="rounded=1;whiteSpace=wrap;html=1;fillColor=#dae8fc;strokeColor=#6c8ebf;fontSize=10;align=left;verticalAlign=top;" vertex="1" parent="backend-layer">
          <mxGeometry x="20" y="40" width="130" height="80" as="geometry"/>
        </mxCell>
        
        <mxCell id="auth" value="Authentication&#xa;• JWT Tokens&#xa;• OAuth Integration&#xa;• Role-based Access&#xa;• Session Management" style="rounded=1;whiteSpace=wrap;html=1;fillColor=#d5e8d4;strokeColor=#82b366;fontSize=10;align=left;verticalAlign=top;" vertex="1" parent="backend-layer">
          <mxGeometry x="170" y="40" width="130" height="80" as="geometry"/>
        </mxCell>
        
        <mxCell id="user-mgmt" value="User Management&#xa;• User Profiles&#xa;• Learning Progress&#xa;• Achievement System&#xa;• Skill Assessment" style="rounded=1;whiteSpace=wrap;html=1;fillColor=#f8cecc;strokeColor=#b85450;fontSize=10;align=left;verticalAlign=top;" vertex="1" parent="backend-layer">
          <mxGeometry x="320" y="40" width="130" height="80" as="geometry"/>
        </mxCell>
        
        <mxCell id="ai-assistant" value="AI Assistant&#xa;• NLP Processing&#xa;• Code Analysis&#xa;• Hint Generation&#xa;• Learning Support" style="rounded=1;whiteSpace=wrap;html=1;fillColor=#e1d5e7;strokeColor=#9673a6;fontSize=10;align=left;verticalAlign=top;" vertex="1" parent="backend-layer">
          <mxGeometry x="470" y="40" width="130" height="80" as="geometry"/>
        </mxCell>
        
        <mxCell id="community" value="Community Features&#xa;• Discussion Forums&#xa;• Code Sharing&#xa;• Peer Learning&#xa;• Study Groups" style="rounded=1;whiteSpace=wrap;html=1;fillColor=#ffcd28;strokeColor=#d79b00;fontSize=10;align=left;verticalAlign=top;" vertex="1" parent="backend-layer">
          <mxGeometry x="620" y="40" width="130" height="80" as="geometry"/>
        </mxCell>
        
        <mxCell id="assessment" value="Assessment System&#xa;• Quiz Engine&#xa;• Coding Challenges&#xa;• Auto Grading&#xa;• Feedback System" style="rounded=1;whiteSpace=wrap;html=1;fillColor=#ffe6cc;strokeColor=#d79b00;fontSize=10;align=left;verticalAlign=top;" vertex="1" parent="backend-layer">
          <mxGeometry x="770" y="40" width="130" height="80" as="geometry"/>
        </mxCell>
        
        <mxCell id="analytics" value="Analytics Service&#xa;• Usage Analytics&#xa;• Learning Analytics&#xa;• Performance Metrics&#xa;• A/B Testing" style="rounded=1;whiteSpace=wrap;html=1;fillColor=#f5f5f5;strokeColor=#666666;fontSize=10;align=left;verticalAlign=top;" vertex="1" parent="backend-layer">
          <mxGeometry x="920" y="40" width="130" height="80" as="geometry"/>
        </mxCell>
        
        <mxCell id="notification" value="Notification System&#xa;• Email Service&#xa;• Push Notifications&#xa;• Real-time Updates&#xa;• Alert Management" style="rounded=1;whiteSpace=wrap;html=1;fillColor=#d4e8fc;strokeColor=#6c8ebf;fontSize=10;align=left;verticalAlign=top;" vertex="1" parent="backend-layer">
          <mxGeometry x="1070" y="40" width="130" height="80" as="geometry"/>
        </mxCell>
        
        <mxCell id="content-mgmt" value="Content Management&#xa;• Course Content&#xa;• Media Files&#xa;• Version Control&#xa;• Content Delivery" style="rounded=1;whiteSpace=wrap;html=1;fillColor=#fff2cc;strokeColor=#d6b656;fontSize=10;align=left;verticalAlign=top;" vertex="1" parent="backend-layer">
          <mxGeometry x="1220" y="40" width="130" height="80" as="geometry"/>
        </mxCell>
        
        <!-- Data Layer -->
        <mxCell id="data-layer" value="Data Management &amp; Storage Layer" style="swimlane;startSize=30;fillColor=#f8cecc;strokeColor=#b85450;fontSize=14;fontStyle=1;" vertex="1" parent="1">
          <mxGeometry x="50" y="610" width="1300" height="120" as="geometry"/>
        </mxCell>
        
        <mxCell id="postgresql" value="PostgreSQL&#xa;• User Data&#xa;• Learning Progress&#xa;• ACID Compliance" style="rounded=1;whiteSpace=wrap;html=1;fillColor=#dae8fc;strokeColor=#6c8ebf;fontSize=10;align=left;verticalAlign=top;" vertex="1" parent="data-layer">
          <mxGeometry x="40" y="40" width="140" height="70" as="geometry"/>
        </mxCell>
        
        <mxCell id="prisma" value="Prisma ORM&#xa;• Type-safe Access&#xa;• Migration Management&#xa;• Query Optimization" style="rounded=1;whiteSpace=wrap;html=1;fillColor=#d5e8d4;strokeColor=#82b366;fontSize=10;align=left;verticalAlign=top;" vertex="1" parent="data-layer">
          <mxGeometry x="200" y="40" width="140" height="70" as="geometry"/>
        </mxCell>
        
        <mxCell id="redis" value="Redis Cache&#xa;• Session Storage&#xa;• API Caching&#xa;• Real-time Data" style="rounded=1;whiteSpace=wrap;html=1;fillColor=#fff2cc;strokeColor=#d6b656;fontSize=10;align=left;verticalAlign=top;" vertex="1" parent="data-layer">
          <mxGeometry x="360" y="40" width="140" height="70" as="geometry"/>
        </mxCell>
        
        <mxCell id="file-storage" value="File Storage&#xa;• User Uploads&#xa;• Media Files&#xa;• CDN Integration" style="rounded=1;whiteSpace=wrap;html=1;fillColor=#e1d5e7;strokeColor=#9673a6;fontSize=10;align=left;verticalAlign=top;" vertex="1" parent="data-layer">
          <mxGeometry x="520" y="40" width="140" height="70" as="geometry"/>
        </mxCell>
        
        <mxCell id="backup" value="Backup System&#xa;• Automated Backups&#xa;• Point-in-time Recovery&#xa;• Data Replication" style="rounded=1;whiteSpace=wrap;html=1;fillColor=#ffcd28;strokeColor=#d79b00;fontSize=10;align=left;verticalAlign=top;" vertex="1" parent="data-layer">
          <mxGeometry x="680" y="40" width="140" height="70" as="geometry"/>
        </mxCell>
        
        <mxCell id="security-data" value="Security Layer&#xa;• Data Encryption&#xa;• Access Control&#xa;• Audit Logging" style="rounded=1;whiteSpace=wrap;html=1;fillColor=#ffe6cc;strokeColor=#d79b00;fontSize=10;align=left;verticalAlign=top;" vertex="1" parent="data-layer">
          <mxGeometry x="840" y="40" width="140" height="70" as="geometry"/>
        </mxCell>
        
        <mxCell id="monitoring-data" value="Monitoring&#xa;• Performance Tracking&#xa;• Error Logging&#xa;• Health Checks" style="rounded=1;whiteSpace=wrap;html=1;fillColor=#f5f5f5;strokeColor=#666666;fontSize=10;align=left;verticalAlign=top;" vertex="1" parent="data-layer">
          <mxGeometry x="1000" y="40" width="140" height="70" as="geometry"/>
        </mxCell>
        
        <mxCell id="migration" value="Migration Tools&#xa;• Schema Versioning&#xa;• Data Import/Export&#xa;• Rollback Support" style="rounded=1;whiteSpace=wrap;html=1;fillColor=#d4e8fc;strokeColor=#6c8ebf;fontSize=10;align=left;verticalAlign=top;" vertex="1" parent="data-layer">
          <mxGeometry x="1160" y="40" width="140" height="70" as="geometry"/>
        </mxCell>
        
        <!-- Infrastructure Layer -->
        <mxCell id="infra-layer" value="Infrastructure &amp; DevOps" style="swimlane;startSize=30;fillColor=#f5f5f5;strokeColor=#666666;fontSize=14;fontStyle=1;" vertex="1" parent="1">
          <mxGeometry x="50" y="750" width="1300" height="100" as="geometry"/>
        </mxCell>
        
        <mxCell id="deployment" value="Deployment Pipeline&#xa;• CI/CD Integration&#xa;• Docker Containers&#xa;• Kubernetes" style="rounded=1;whiteSpace=wrap;html=1;fillColor=#dae8fc;strokeColor=#6c8ebf;fontSize=10;align=left;verticalAlign=top;" vertex="1" parent="infra-layer">
          <mxGeometry x="50" y="40" width="160" height="50" as="geometry"/>
        </mxCell>
        
        <mxCell id="cloud" value="Cloud Services&#xa;• AWS/Azure/GCP&#xa;• Load Balancing&#xa;• Auto Scaling" style="rounded=1;whiteSpace=wrap;html=1;fillColor=#d5e8d4;strokeColor=#82b366;fontSize=10;align=left;verticalAlign=top;" vertex="1" parent="infra-layer">
          <mxGeometry x="230" y="40" width="160" height="50" as="geometry"/>
        </mxCell>
        
        <mxCell id="monitoring-infra" value="Monitoring Infrastructure&#xa;• APM Tools&#xa;• Log Aggregation&#xa;• Alerting System" style="rounded=1;whiteSpace=wrap;html=1;fillColor=#fff2cc;strokeColor=#d6b656;fontSize=10;align=left;verticalAlign=top;" vertex="1" parent="infra-layer">
          <mxGeometry x="410" y="40" width="160" height="50" as="geometry"/>
        </mxCell>
        
        <mxCell id="security-infra" value="Security Infrastructure&#xa;• SSL/TLS&#xa;• Firewall&#xa;• DDoS Protection" style="rounded=1;whiteSpace=wrap;html=1;fillColor=#f8cecc;strokeColor=#b85450;fontSize=10;align=left;verticalAlign=top;" vertex="1" parent="infra-layer">
          <mxGeometry x="590" y="40" width="160" height="50" as="geometry"/>
        </mxCell>
        
        <mxCell id="performance-opt" value="Performance Optimization&#xa;• Caching Strategies&#xa;• Database Tuning&#xa;• Code Optimization" style="rounded=1;whiteSpace=wrap;html=1;fillColor=#e1d5e7;strokeColor=#9673a6;fontSize=10;align=left;verticalAlign=top;" vertex="1" parent="infra-layer">
          <mxGeometry x="770" y="40" width="160" height="50" as="geometry"/>
        </mxCell>
        
        <mxCell id="compliance" value="Compliance &amp; Standards&#xa;• GDPR Compliance&#xa;• Educational Standards&#xa;• Accessibility (WCAG)" style="rounded=1;whiteSpace=wrap;html=1;fillColor=#ffcd28;strokeColor=#d79b00;fontSize=10;align=left;verticalAlign=top;" vertex="1" parent="infra-layer">
          <mxGeometry x="950" y="40" width="160" height="50" as="geometry"/>
        </mxCell>
        
        <mxCell id="quality-assurance" value="Quality Assurance&#xa;• Automated Testing&#xa;• Code Quality&#xa;• Performance Testing" style="rounded=1;whiteSpace=wrap;html=1;fillColor=#ffe6cc;strokeColor=#d79b00;fontSize=10;align=left;verticalAlign=top;" vertex="1" parent="infra-layer">
          <mxGeometry x="1130" y="40" width="160" height="50" as="geometry"/>
        </mxCell>
        
        <!-- Connections -->
        <mxCell id="conn1" value="" style="endArrow=classic;html=1;rounded=0;entryX=0.5;entryY=0;entryDx=0;entryDy=0;exitX=0.5;exitY=1;exitDx=0;exitDy=0;strokeWidth=3;strokeColor=#666666;" edge="1" parent="1" source="ui-layer" target="viz-layer">
          <mxGeometry width="50" height="50" relative="1" as="geometry">
            <mxPoint x="700" y="290" as="sourcePoint"/>
            <mxPoint x="750" y="240" as="targetPoint"/>
          </mxGeometry>
        </mxCell>
        
        <mxCell id="conn2" value="" style="endArrow=classic;html=1;rounded=0;entryX=0.5;entryY=0;entryDx=0;entryDy=0;exitX=0.5;exitY=1;exitDx=0;exitDy=0;strokeWidth=3;strokeColor=#666666;" edge="1" parent="1" source="viz-layer" target="backend-layer">
          <mxGeometry width="50" height="50" relative="1" as="geometry">
            <mxPoint x="710" y="440" as="sourcePoint"/>
            <mxPoint x="710" y="460" as="targetPoint"/>
          </mxGeometry>
        </mxCell>
        
        <mxCell id="conn3" value="" style="endArrow=classic;html=1;rounded=0;entryX=0.5;entryY=0;entryDx=0;entryDy=0;exitX=0.5;exitY=1;exitDx=0;exitDy=0;strokeWidth=3;strokeColor=#666666;" edge="1" parent="1" source="backend-layer" target="data-layer">
          <mxGeometry width="50" height="50" relative="1" as="geometry">
            <mxPoint x="720" y="600" as="sourcePoint"/>
            <mxPoint x="720" y="620" as="targetPoint"/>
          </mxGeometry>
        </mxCell>
        
        <mxCell id="conn4" value="" style="endArrow=classic;html=1;rounded=0;entryX=0.5;entryY=0;entryDx=0;entryDy=0;exitX=0.5;exitY=1;exitDx=0;exitDy=0;strokeWidth=3;strokeColor=#666666;" edge="1" parent="1" source="data-layer" target="infra-layer">
          <mxGeometry width="50" height="50" relative="1" as="geometry">
            <mxPoint x="730" y="740" as="sourcePoint"/>
            <mxPoint x="730" y="760" as="targetPoint"/>
          </mxGeometry>
        </mxCell>
        
        <!-- Connection Labels -->
        <mxCell id="label1" value="User Interactions" style="text;html=1;strokeColor=none;fillColor=none;align=center;verticalAlign=middle;whiteSpace=wrap;rounded=0;fontSize=11;fontStyle=2;" vertex="1" parent="1">
          <mxGeometry x="750" y="255" width="100" height="15" as="geometry"/>
        </mxCell>
        
        <mxCell id="label2" value="Algorithm Processing" style="text;html=1;strokeColor=none;fillColor=none;align=center;verticalAlign=middle;whiteSpace=wrap;rounded=0;fontSize=11;fontStyle=2;" vertex="1" parent="1">
          <mxGeometry x="740" y="435" width="120" height="15" as="geometry"/>
        </mxCell>
        
        <mxCell id="label3" value="Data Operations" style="text;html=1;strokeColor=none;fillColor=none;align=center;verticalAlign=middle;whiteSpace=wrap;rounded=0;fontSize=11;fontStyle=2;" vertex="1" parent="1">
          <mxGeometry x="750" y="595" width="100" height="15" as="geometry"/>
        </mxCell>
        
        <mxCell id="label4" value="Infrastructure Support" style="text;html=1;strokeColor=none;fillColor=none;align=center;verticalAlign=middle;whiteSpace=wrap;rounded=0;fontSize=11;fontStyle=2;" vertex="1" parent="1">
          <mxGeometry x="740" y="735" width="120" height="15" as="geometry"/>
        </mxCell>
        
        <!-- Technology Stack -->
        <mxCell id="tech-stack-title" value="Technology Stack" style="text;html=1;align=center;verticalAlign=middle;whiteSpace=wrap;rounded=1;fillColor=#1ba1e2;fontColor=#ffffff;fontSize=14;fontStyle=1;strokeColor=#006EAF;" vertex="1" parent="1">
          <mxGeometry x="50" y="870" width="150" height="30" as="geometry"/>
        </mxCell>
        
        <mxCell id="tech-stack-content" value="Frontend: Next.js 15 • React 19 • TypeScript • Tailwind CSS • Framer Motion&#xa;Backend: Node.js • RESTful APIs • GraphQL • JWT Authentication&#xa;Database: PostgreSQL • Prisma ORM • Redis Cache • File Storage&#xa;Infrastructure: Docker • Kubernetes • CI/CD • AWS/Azure/GCP&#xa;AI/ML: Natural Language Processing • Machine Learning • Recommendation Engine" style="text;html=1;align=left;verticalAlign=top;whiteSpace=wrap;rounded=1;fillColor=#f0f0f0;strokeColor=#cccccc;fontSize=10;" vertex="1" parent="1">
          <mxGeometry x="220" y="870" width="1130" height="70" as="geometry"/>
        </mxCell>
        
      </root>
    </mxGraphModel>
  </diagram>
</mxfile>